<svg width="1260" height="804" viewBox="0 0 1260 804" fill="none" xmlns="http://www.w3.org/2000/svg">
<path d="M113.601 522.336V430.325H264.896V328.09H113.601V113.476C113.601 104.52 114.911 97.7909 117.527 93.2988C120.147 88.8016 124.074 86.5499 129.29 86.5498C134.964 86.5498 139.215 88.8269 142.044 93.3789C144.869 97.9255 146.272 104.736 146.272 113.8V269.495H259.566V180.467C259.566 141.736 258.463 114.448 256.346 98.6006C252.763 72.2972 241.557 50.1954 222.633 32.3037V32.3027C200.219 10.8501 170.734 0.0645008 134.163 0.0644531C94.2833 0.0644531 62.5899 10.8518 39.0752 32.3047H39.0742C18.4956 51.2715 6.4629 75.7463 3.06543 105.933C1.2258 122.106 0.398438 146.377 0.398438 178.52V522.336H113.601ZM1104.94 522.336V484.692H1254.4V382.133H1104.94V327.277L1105.03 327.318C1113.38 330.978 1124.4 331.629 1137.81 329.58C1172.08 324.293 1199.27 308.767 1219.39 283.112V283.113C1240.33 255.944 1250.9 220.577 1250.9 177.011V128.041C1250.9 89.8284 1239.6 59.355 1216.99 36.5107L1215.9 35.4287C1191.84 11.9271 1158.95 0.0644943 1117.05 0.0644531C1080.48 0.0644531 1050.99 10.8501 1028.57 32.3027V32.3037C1009.74 50.1955 998.446 72.2973 994.863 98.6006C992.566 115.855 991.371 143.143 991.371 180.467V382.133H954.786V484.367H991.644V522.336H1104.94ZM733.188 522.336V208.612C733.189 199.548 734.59 192.739 737.415 188.193C740.243 183.643 744.494 181.368 750.17 181.368C755.433 181.368 759.361 183.618 761.971 188.115C764.577 192.607 765.864 199.336 765.864 208.294V400.016H879.153V273.337C879.153 241.195 878.235 216.924 876.399 200.751C872.996 170.347 861.517 145.763 841.952 126.796C819.538 104.906 789.219 93.9092 750.996 93.9092C745.126 93.9092 739.154 94.9892 733.278 97.1445L733.188 97.1777V10.8555H619.899V522.336H733.188ZM539.671 522.336V420.106H470.732V10.8555H357.531V522.336H539.671ZM1119.81 228.534C1117.31 228.534 1115.13 227.917 1113.27 226.679C1111.4 225.44 1109.86 223.581 1108.62 221.105C1106.16 216.156 1104.94 208.727 1104.94 198.802V113.8C1104.94 104.736 1106.34 97.9255 1109.16 93.3789C1111.99 88.8271 1116.24 86.5499 1121.91 86.5498C1127.13 86.5498 1131.06 88.8014 1133.68 93.2988C1136.3 97.7909 1137.61 104.52 1137.61 113.476V199.12C1137.61 208.941 1136.14 216.293 1133.18 221.191C1130.21 226.095 1125.75 228.534 1119.81 228.534Z" fill="black" stroke="black" stroke-width="0.133333"/>
<mask id="path-2-inside-1_173_2042" fill="white">
<path d="M0.332031 802.992V645.049H15.9547V689.467C18.8837 685.7 22.6109 682.706 27.0792 680.49C31.547 678.278 36.5758 677.154 42.1685 677.154C51.5765 677.154 58.6185 679.658 63.3534 684.635C68.0865 689.64 70.4544 697.637 70.4544 708.629L70.0996 737.225C70.0996 744.015 71.4008 749.079 74.0036 752.415C76.6077 755.751 80.7802 757.421 86.5496 757.421C94.3017 757.421 100.012 754.803 103.741 749.595C107.466 744.36 109.331 736.334 109.331 725.487V679.053H124.954V768.641H110.93V755.982C108 760.355 104.124 763.894 99.361 766.541C94.5974 769.216 89.1829 770.541 83.0586 770.541C73.6501 770.541 66.5182 768.037 61.697 763.06C56.8721 758.054 54.4769 750.056 54.4769 739.065L54.8317 710.47C54.8317 703.622 53.5592 698.558 51.045 695.249C48.4999 691.941 44.3869 690.274 38.677 690.274C31.1326 690.274 25.4513 692.776 21.6627 697.81C17.8474 702.845 15.9547 710.526 15.9547 720.885V802.992H0.332031ZM283.022 679.053V768.641H268.995V755.982C266.07 760.355 262.19 763.894 257.428 766.541C252.666 769.216 247.249 770.541 241.127 770.541C234.321 770.541 228.729 769.159 224.382 766.425C220.003 763.664 216.954 759.838 215.149 754.889C207.869 765.333 198.4 770.541 186.713 770.541C177.605 770.541 170.559 768.094 165.618 763.176C160.676 758.255 158.221 750.69 158.221 740.477V679.053H173.845V735.442C173.845 744.015 175.206 749.825 177.928 752.876C180.623 755.897 184.734 757.421 190.206 757.421C197.192 757.421 202.692 755.149 206.715 750.603C210.711 746.056 212.722 739.526 212.722 731.039V679.053H228.346V737.196C228.346 743.986 229.615 749.079 232.161 752.415C234.704 755.751 238.847 757.421 244.619 757.421C252.371 757.421 258.079 754.803 261.807 749.595C265.535 744.36 267.399 736.334 267.399 725.487V679.053H283.022ZM391.208 679.053V768.641H377.181V755.809C370.435 765.62 360.672 770.541 347.923 770.541C337.685 770.541 329.901 767.836 324.516 762.455C319.159 757.076 316.469 749.711 316.469 740.418V658.165H299.605V645.049H332.092V736.276C332.092 743.181 333.689 748.443 336.854 752.042C340.019 755.637 344.813 757.421 351.204 757.421C358.928 757.421 364.935 755.061 369.194 750.343C373.453 745.627 375.584 738.922 375.584 730.207V679.053H391.208ZM424.77 768.641V679.053H438.797V691.886C445.57 682.072 455.366 677.154 468.147 677.154C478.233 677.154 486.017 679.86 491.494 685.239C496.966 690.646 499.688 697.983 499.688 707.305V768.641H484.065V711.418C484.065 704.514 482.469 699.248 479.304 695.653C476.106 692.057 471.312 690.274 464.894 690.274C457.11 690.274 451.107 692.632 446.816 697.352C442.525 702.069 440.393 708.771 440.393 717.488V768.641H424.77ZM532.66 768.641V679.053H548.283V755.521H590.89V768.641H532.66ZM628.333 717.547V802.992H612.705V679.053H626.731V693.811L626.819 691.941C630.963 687.052 635.992 683.34 641.912 680.866C647.859 678.39 655.371 677.154 664.544 677.154C676.559 677.154 686.29 680.606 693.746 687.51C701.202 694.417 705.673 703.679 707.15 715.303H717.623V727.733H707.685C707.39 742.433 704.395 753.221 698.655 760.155C692.948 767.086 684.573 770.541 673.509 770.541C665.194 770.541 658.065 767.923 652.118 762.686C646.198 757.45 643.24 750.89 643.24 743.035C643.24 734.808 646.023 728.134 651.615 722.985C657.207 717.862 664.751 715.303 674.247 715.303H691.263C690.225 707.188 687.148 700.888 682.031 696.431C676.909 691.97 670.196 689.756 661.909 689.756C652.413 689.756 644.454 692.228 638.004 697.178C631.553 702.126 628.333 708.916 628.333 717.547ZM674.93 727.733C669.868 727.733 665.992 728.996 663.275 731.557C660.58 734.119 659.219 737.943 659.219 743.035C659.219 747.524 660.58 751.177 663.33 753.939C666.052 756.732 669.601 758.111 673.984 758.111C680.051 758.111 684.458 755.695 687.208 750.863C689.99 746.056 691.466 738.347 691.706 727.733H674.93ZM740.422 731.529V716.339H788.703V731.529H740.422ZM884.906 679.053V768.641H870.884V755.809C864.106 765.62 854.315 770.541 841.534 770.541C831.267 770.541 823.456 767.836 818.067 762.455C812.687 757.047 809.992 749.711 809.992 740.39V679.053H825.615V736.276C825.615 743.181 827.212 748.443 830.377 752.042C833.574 755.637 838.364 757.421 844.787 757.421C852.566 757.421 858.573 755.061 862.864 750.343C867.155 745.627 869.283 738.922 869.283 730.207V679.053H884.906ZM918.413 802.992V679.053H932.44V691.886C939.213 682.072 949.009 677.154 961.79 677.154C971.881 677.154 979.66 679.86 985.132 685.239C990.604 690.646 993.326 697.983 993.326 707.305V768.641H977.703V711.418C977.703 704.514 976.107 699.248 972.942 695.653C969.744 692.057 964.955 690.274 958.532 690.274C950.753 690.274 944.745 692.632 940.454 697.352C936.163 702.069 934.036 708.801 934.036 717.488V802.992H918.413ZM1150.75 679.053V768.641H1136.72V755.982C1133.79 760.355 1129.92 763.894 1125.15 766.541C1120.39 769.216 1114.98 770.541 1108.85 770.541C1102.05 770.541 1096.45 769.159 1092.1 766.425C1087.73 763.664 1084.68 759.838 1082.87 754.889C1075.59 765.333 1066.13 770.541 1054.44 770.541C1045.33 770.541 1038.29 768.094 1033.34 763.176C1028.4 758.255 1025.95 750.69 1025.95 740.477V679.053H1041.57V735.442C1041.57 744.015 1042.93 749.825 1045.65 752.876C1048.34 755.897 1052.46 757.421 1057.93 757.421C1064.91 757.421 1070.42 755.149 1074.44 750.603C1078.44 746.056 1080.45 739.526 1080.45 731.039V679.053H1096.07V737.196C1096.07 743.986 1097.34 749.079 1099.89 752.415C1102.43 755.751 1106.57 757.421 1112.35 757.421C1120.09 757.421 1125.8 754.803 1129.53 749.595C1133.26 744.36 1135.13 736.334 1135.13 725.487V679.053H1150.75ZM1184.19 768.641V645.049H1199.81V689.756C1206.47 681.354 1215.73 677.154 1227.6 677.154C1237.66 677.154 1245.44 679.86 1250.91 685.239C1256.39 690.646 1259.11 697.983 1259.11 707.305V768.641H1243.49V711.418C1243.49 704.514 1241.89 699.248 1238.72 695.653C1235.53 692.057 1230.73 690.274 1224.31 690.274C1216.77 690.274 1210.88 692.488 1206.59 696.918C1202.3 701.378 1200.05 707.765 1199.81 716.136V768.641H1184.19Z"/>
</mask>
<path d="M0.332031 802.992V645.049H15.9547V689.467C18.8837 685.7 22.6109 682.706 27.0792 680.49C31.547 678.278 36.5758 677.154 42.1685 677.154C51.5765 677.154 58.6185 679.658 63.3534 684.635C68.0865 689.64 70.4544 697.637 70.4544 708.629L70.0996 737.225C70.0996 744.015 71.4008 749.079 74.0036 752.415C76.6077 755.751 80.7802 757.421 86.5496 757.421C94.3017 757.421 100.012 754.803 103.741 749.595C107.466 744.36 109.331 736.334 109.331 725.487V679.053H124.954V768.641H110.93V755.982C108 760.355 104.124 763.894 99.361 766.541C94.5974 769.216 89.1829 770.541 83.0586 770.541C73.6501 770.541 66.5182 768.037 61.697 763.06C56.8721 758.054 54.4769 750.056 54.4769 739.065L54.8317 710.47C54.8317 703.622 53.5592 698.558 51.045 695.249C48.4999 691.941 44.3869 690.274 38.677 690.274C31.1326 690.274 25.4513 692.776 21.6627 697.81C17.8474 702.845 15.9547 710.526 15.9547 720.885V802.992H0.332031ZM283.022 679.053V768.641H268.995V755.982C266.07 760.355 262.19 763.894 257.428 766.541C252.666 769.216 247.249 770.541 241.127 770.541C234.321 770.541 228.729 769.159 224.382 766.425C220.003 763.664 216.954 759.838 215.149 754.889C207.869 765.333 198.4 770.541 186.713 770.541C177.605 770.541 170.559 768.094 165.618 763.176C160.676 758.255 158.221 750.69 158.221 740.477V679.053H173.845V735.442C173.845 744.015 175.206 749.825 177.928 752.876C180.623 755.897 184.734 757.421 190.206 757.421C197.192 757.421 202.692 755.149 206.715 750.603C210.711 746.056 212.722 739.526 212.722 731.039V679.053H228.346V737.196C228.346 743.986 229.615 749.079 232.161 752.415C234.704 755.751 238.847 757.421 244.619 757.421C252.371 757.421 258.079 754.803 261.807 749.595C265.535 744.36 267.399 736.334 267.399 725.487V679.053H283.022ZM391.208 679.053V768.641H377.181V755.809C370.435 765.62 360.672 770.541 347.923 770.541C337.685 770.541 329.901 767.836 324.516 762.455C319.159 757.076 316.469 749.711 316.469 740.418V658.165H299.605V645.049H332.092V736.276C332.092 743.181 333.689 748.443 336.854 752.042C340.019 755.637 344.813 757.421 351.204 757.421C358.928 757.421 364.935 755.061 369.194 750.343C373.453 745.627 375.584 738.922 375.584 730.207V679.053H391.208ZM424.77 768.641V679.053H438.797V691.886C445.57 682.072 455.366 677.154 468.147 677.154C478.233 677.154 486.017 679.86 491.494 685.239C496.966 690.646 499.688 697.983 499.688 707.305V768.641H484.065V711.418C484.065 704.514 482.469 699.248 479.304 695.653C476.106 692.057 471.312 690.274 464.894 690.274C457.11 690.274 451.107 692.632 446.816 697.352C442.525 702.069 440.393 708.771 440.393 717.488V768.641H424.77ZM532.66 768.641V679.053H548.283V755.521H590.89V768.641H532.66ZM628.333 717.547V802.992H612.705V679.053H626.731V693.811L626.819 691.941C630.963 687.052 635.992 683.34 641.912 680.866C647.859 678.39 655.371 677.154 664.544 677.154C676.559 677.154 686.29 680.606 693.746 687.51C701.202 694.417 705.673 703.679 707.15 715.303H717.623V727.733H707.685C707.39 742.433 704.395 753.221 698.655 760.155C692.948 767.086 684.573 770.541 673.509 770.541C665.194 770.541 658.065 767.923 652.118 762.686C646.198 757.45 643.24 750.89 643.24 743.035C643.24 734.808 646.023 728.134 651.615 722.985C657.207 717.862 664.751 715.303 674.247 715.303H691.263C690.225 707.188 687.148 700.888 682.031 696.431C676.909 691.97 670.196 689.756 661.909 689.756C652.413 689.756 644.454 692.228 638.004 697.178C631.553 702.126 628.333 708.916 628.333 717.547ZM674.93 727.733C669.868 727.733 665.992 728.996 663.275 731.557C660.58 734.119 659.219 737.943 659.219 743.035C659.219 747.524 660.58 751.177 663.33 753.939C666.052 756.732 669.601 758.111 673.984 758.111C680.051 758.111 684.458 755.695 687.208 750.863C689.99 746.056 691.466 738.347 691.706 727.733H674.93ZM740.422 731.529V716.339H788.703V731.529H740.422ZM884.906 679.053V768.641H870.884V755.809C864.106 765.62 854.315 770.541 841.534 770.541C831.267 770.541 823.456 767.836 818.067 762.455C812.687 757.047 809.992 749.711 809.992 740.39V679.053H825.615V736.276C825.615 743.181 827.212 748.443 830.377 752.042C833.574 755.637 838.364 757.421 844.787 757.421C852.566 757.421 858.573 755.061 862.864 750.343C867.155 745.627 869.283 738.922 869.283 730.207V679.053H884.906ZM918.413 802.992V679.053H932.44V691.886C939.213 682.072 949.009 677.154 961.79 677.154C971.881 677.154 979.66 679.86 985.132 685.239C990.604 690.646 993.326 697.983 993.326 707.305V768.641H977.703V711.418C977.703 704.514 976.107 699.248 972.942 695.653C969.744 692.057 964.955 690.274 958.532 690.274C950.753 690.274 944.745 692.632 940.454 697.352C936.163 702.069 934.036 708.801 934.036 717.488V802.992H918.413ZM1150.75 679.053V768.641H1136.72V755.982C1133.79 760.355 1129.92 763.894 1125.15 766.541C1120.39 769.216 1114.98 770.541 1108.85 770.541C1102.05 770.541 1096.45 769.159 1092.1 766.425C1087.73 763.664 1084.68 759.838 1082.87 754.889C1075.59 765.333 1066.13 770.541 1054.44 770.541C1045.33 770.541 1038.29 768.094 1033.34 763.176C1028.4 758.255 1025.95 750.69 1025.95 740.477V679.053H1041.57V735.442C1041.57 744.015 1042.93 749.825 1045.65 752.876C1048.34 755.897 1052.46 757.421 1057.93 757.421C1064.91 757.421 1070.42 755.149 1074.44 750.603C1078.44 746.056 1080.45 739.526 1080.45 731.039V679.053H1096.07V737.196C1096.07 743.986 1097.34 749.079 1099.89 752.415C1102.43 755.751 1106.57 757.421 1112.35 757.421C1120.09 757.421 1125.8 754.803 1129.53 749.595C1133.26 744.36 1135.13 736.334 1135.13 725.487V679.053H1150.75ZM1184.19 768.641V645.049H1199.81V689.756C1206.47 681.354 1215.73 677.154 1227.6 677.154C1237.66 677.154 1245.44 679.86 1250.91 685.239C1256.39 690.646 1259.11 697.983 1259.11 707.305V768.641H1243.49V711.418C1243.49 704.514 1241.89 699.248 1238.72 695.653C1235.53 692.057 1230.73 690.274 1224.31 690.274C1216.77 690.274 1210.88 692.488 1206.59 696.918C1202.3 701.378 1200.05 707.765 1199.81 716.136V768.641H1184.19Z" fill="#140C07" stroke="black" stroke-width="0.266667" mask="url(#path-2-inside-1_173_2042)"/>
<path d="M0.332031 802.992V645.049H15.9547V689.467C18.8837 685.7 22.6109 682.706 27.0792 680.49C31.547 678.278 36.5758 677.154 42.1685 677.154C51.5765 677.154 58.6185 679.658 63.3534 684.635C68.0865 689.64 70.4544 697.637 70.4544 708.629L70.0996 737.225C70.0996 744.015 71.4008 749.079 74.0036 752.415C76.6077 755.751 80.7802 757.421 86.5496 757.421C94.3017 757.421 100.012 754.803 103.741 749.595C107.466 744.36 109.331 736.334 109.331 725.487V679.053H124.954V768.641H110.93V755.982C108 760.355 104.124 763.894 99.361 766.541C94.5974 769.216 89.1829 770.541 83.0586 770.541C73.6501 770.541 66.5182 768.037 61.697 763.06C56.8721 758.054 54.4769 750.056 54.4769 739.065L54.8317 710.47C54.8317 703.622 53.5592 698.558 51.045 695.249C48.4999 691.941 44.3869 690.274 38.677 690.274C31.1326 690.274 25.4513 692.776 21.6627 697.81C17.8474 702.845 15.9547 710.526 15.9547 720.885V802.992H0.332031ZM283.022 679.053V768.641H268.995V755.982C266.07 760.355 262.19 763.894 257.428 766.541C252.666 769.216 247.249 770.541 241.127 770.541C234.321 770.541 228.729 769.159 224.382 766.425C220.003 763.664 216.954 759.838 215.149 754.889C207.869 765.333 198.4 770.541 186.713 770.541C177.605 770.541 170.559 768.094 165.618 763.176C160.676 758.255 158.221 750.69 158.221 740.477V679.053H173.845V735.442C173.845 744.015 175.206 749.825 177.928 752.876C180.623 755.897 184.734 757.421 190.206 757.421C197.192 757.421 202.692 755.149 206.715 750.603C210.711 746.056 212.722 739.526 212.722 731.039V679.053H228.346V737.196C228.346 743.986 229.615 749.079 232.161 752.415C234.704 755.751 238.847 757.421 244.619 757.421C252.371 757.421 258.079 754.803 261.807 749.595C265.535 744.36 267.399 736.334 267.399 725.487V679.053H283.022ZM391.208 679.053V768.641H377.181V755.809C370.435 765.62 360.672 770.541 347.923 770.541C337.685 770.541 329.901 767.836 324.516 762.455C319.159 757.076 316.469 749.711 316.469 740.418V658.165H299.605V645.049H332.092V736.276C332.092 743.181 333.689 748.443 336.854 752.042C340.019 755.637 344.813 757.421 351.204 757.421C358.928 757.421 364.935 755.061 369.194 750.343C373.453 745.627 375.584 738.922 375.584 730.207V679.053H391.208ZM424.77 768.641V679.053H438.797V691.886C445.57 682.072 455.366 677.154 468.147 677.154C478.233 677.154 486.017 679.86 491.494 685.239C496.966 690.646 499.688 697.983 499.688 707.305V768.641H484.065V711.418C484.065 704.514 482.469 699.248 479.304 695.653C476.106 692.057 471.312 690.274 464.894 690.274C457.11 690.274 451.107 692.632 446.816 697.352C442.525 702.069 440.393 708.771 440.393 717.488V768.641H424.77ZM532.66 768.641V679.053H548.283V755.521H590.89V768.641H532.66ZM628.333 717.547V802.992H612.705V679.053H626.731V693.811L626.819 691.941C630.963 687.052 635.992 683.34 641.912 680.866C647.859 678.39 655.371 677.154 664.544 677.154C676.559 677.154 686.29 680.606 693.746 687.51C701.202 694.417 705.673 703.679 707.15 715.303H717.623V727.733H707.685C707.39 742.433 704.395 753.221 698.655 760.155C692.948 767.086 684.573 770.541 673.509 770.541C665.194 770.541 658.065 767.923 652.118 762.686C646.198 757.45 643.24 750.89 643.24 743.035C643.24 734.808 646.023 728.134 651.615 722.985C657.207 717.862 664.751 715.303 674.247 715.303H691.263C690.225 707.188 687.148 700.888 682.031 696.431C676.909 691.97 670.196 689.756 661.909 689.756C652.413 689.756 644.454 692.228 638.004 697.178C631.553 702.126 628.333 708.916 628.333 717.547ZM674.93 727.733C669.868 727.733 665.992 728.996 663.275 731.557C660.58 734.119 659.219 737.943 659.219 743.035C659.219 747.524 660.58 751.177 663.33 753.939C666.052 756.732 669.601 758.111 673.984 758.111C680.051 758.111 684.458 755.695 687.208 750.863C689.99 746.056 691.466 738.347 691.706 727.733H674.93ZM740.422 731.529V716.339H788.703V731.529H740.422ZM884.906 679.053V768.641H870.884V755.809C864.106 765.62 854.315 770.541 841.534 770.541C831.267 770.541 823.456 767.836 818.067 762.455C812.687 757.047 809.992 749.711 809.992 740.39V679.053H825.615V736.276C825.615 743.181 827.212 748.443 830.377 752.042C833.574 755.637 838.364 757.421 844.787 757.421C852.566 757.421 858.573 755.061 862.864 750.343C867.155 745.627 869.283 738.922 869.283 730.207V679.053H884.906ZM918.413 802.992V679.053H932.44V691.886C939.213 682.072 949.009 677.154 961.79 677.154C971.881 677.154 979.66 679.86 985.132 685.239C990.604 690.646 993.326 697.983 993.326 707.305V768.641H977.703V711.418C977.703 704.514 976.107 699.248 972.942 695.653C969.744 692.057 964.955 690.274 958.532 690.274C950.753 690.274 944.745 692.632 940.454 697.352C936.163 702.069 934.036 708.801 934.036 717.488V802.992H918.413ZM1150.75 679.053V768.641H1136.72V755.982C1133.79 760.355 1129.92 763.894 1125.15 766.541C1120.39 769.216 1114.98 770.541 1108.85 770.541C1102.05 770.541 1096.45 769.159 1092.1 766.425C1087.73 763.664 1084.68 759.838 1082.87 754.889C1075.59 765.333 1066.13 770.541 1054.44 770.541C1045.33 770.541 1038.29 768.094 1033.34 763.176C1028.4 758.255 1025.95 750.69 1025.95 740.477V679.053H1041.57V735.442C1041.57 744.015 1042.93 749.825 1045.65 752.876C1048.34 755.897 1052.46 757.421 1057.93 757.421C1064.91 757.421 1070.42 755.149 1074.44 750.603C1078.44 746.056 1080.45 739.526 1080.45 731.039V679.053H1096.07V737.196C1096.07 743.986 1097.34 749.079 1099.89 752.415C1102.43 755.751 1106.57 757.421 1112.35 757.421C1120.09 757.421 1125.8 754.803 1129.53 749.595C1133.26 744.36 1135.13 736.334 1135.13 725.487V679.053H1150.75ZM1184.19 768.641V645.049H1199.81V689.756C1206.47 681.354 1215.73 677.154 1227.6 677.154C1237.66 677.154 1245.44 679.86 1250.91 685.239C1256.39 690.646 1259.11 697.983 1259.11 707.305V768.641H1243.49V711.418C1243.49 704.514 1241.89 699.248 1238.72 695.653C1235.53 692.057 1230.73 690.274 1224.31 690.274C1216.77 690.274 1210.88 692.488 1206.59 696.918C1202.3 701.378 1200.05 707.765 1199.81 716.136V768.641H1184.19Z" stroke="black" stroke-width="0.666707" stroke-miterlimit="2.61313"/>
</svg>
