<svg width="761" height="182" viewBox="0 0 761 182" fill="none" xmlns="http://www.w3.org/2000/svg">
<path d="M431.373 110.669H413.748L411.323 118.936H395.508L414.329 68.8545H431.203L450.024 118.936H433.833L431.373 110.669ZM428.129 99.8394L422.595 81.836L417.096 99.8394H428.129Z" fill="black"/>
<path d="M452.98 68.8545H468.454V87.7802L484.679 68.8545H505.242L487.001 87.7461L506.061 118.936H487.001L476.447 98.3362L468.454 106.706V118.936H452.98V68.8545Z" fill="black"/>
<path d="M539.898 110.669H522.272L519.847 118.936H504.031L522.852 68.8545H539.726L558.547 118.936H542.356L539.898 110.669ZM536.652 99.8394L531.119 81.836L525.619 99.8394H536.652Z" fill="black"/>
<path d="M552.586 68.8545H568.777L580.049 104.895L591.15 68.8545H606.863L588.281 118.936H571.51L552.586 68.8545Z" fill="black"/>
<path d="M636.67 110.669H619.045L616.619 118.936H600.805L619.625 68.8545H636.5L655.321 118.936H639.13L636.67 110.669ZM633.426 99.8394L627.892 81.836L622.393 99.8394H633.426Z" fill="black"/>
<path d="M658.414 68.8545H681.402C685.934 68.8545 689.589 69.4694 692.367 70.6992C695.168 71.9291 697.479 73.6941 699.301 75.9943C701.123 78.2946 702.443 80.9706 703.263 84.0224C704.083 87.0742 704.493 90.3082 704.493 93.7244C704.493 99.0764 703.878 103.233 702.648 106.193C701.441 109.131 699.757 111.602 697.593 113.607C695.43 115.588 693.107 116.909 690.625 117.569C687.232 118.48 684.158 118.936 681.402 118.936H658.414V68.8545ZM673.887 80.1962V107.56H677.679C680.913 107.56 683.213 107.207 684.579 106.501C685.945 105.772 687.015 104.52 687.79 102.743C688.564 100.944 688.951 98.0402 688.951 94.0318C688.951 88.7254 688.086 85.0928 686.356 83.1341C684.625 81.1755 681.755 80.1962 677.747 80.1962H673.887Z" fill="black"/>
<path d="M708.609 93.9289C708.609 85.7528 710.887 79.3873 715.441 74.8324C719.996 70.2775 726.337 68 734.467 68C742.801 68 749.223 70.2433 753.732 74.7299C758.241 79.1937 760.495 85.4568 760.495 93.519C760.495 99.3721 759.505 104.177 757.524 107.935C755.565 111.67 752.719 114.585 748.984 116.681C745.273 118.753 740.638 119.789 735.082 119.789C729.434 119.789 724.755 118.89 721.043 117.091C717.354 115.292 714.36 112.445 712.06 108.55C709.76 104.656 708.609 99.782 708.609 93.9289ZM724.084 93.9973C724.084 99.0532 725.017 102.686 726.884 104.895C728.774 107.104 731.336 108.209 734.569 108.209C737.894 108.209 740.467 107.127 742.289 104.963C744.111 102.8 745.022 98.9166 745.022 93.314C745.022 88.5997 744.065 85.1607 742.153 82.9971C740.262 80.8107 737.689 79.7176 734.433 79.7176C731.314 79.7176 728.808 80.8221 726.919 83.0312C725.028 85.2404 724.084 88.8957 724.084 93.9973Z" fill="black"/>
<path d="M0 68.8545H47.0354V81.2211H31.2544V118.936H15.781V81.2211H0V68.8545Z" fill="black"/>
<path d="M78.7016 110.669H61.0762L58.651 118.936H42.8359L61.6569 68.8545H78.5309L97.3519 118.936H81.161L78.7016 110.669ZM75.4567 99.8394L69.9231 81.836L64.4237 99.8394H75.4567Z" fill="black"/>
<path d="M101.008 68.8545H116.481V87.7802L132.706 68.8545H153.269L135.029 87.7461L154.089 118.936H135.029L124.474 98.3362L116.481 106.706V118.936H101.008V68.8545Z" fill="black"/>
<path d="M188.624 110.669H170.998L168.573 118.936H152.758L171.579 68.8545H188.453L207.274 118.936H191.083L188.624 110.669ZM185.379 99.8394L179.846 81.836L174.346 99.8394H185.379Z" fill="black"/>
<path d="M208.164 102.367L222.886 101.445C223.205 103.836 223.854 105.658 224.833 106.91C226.427 108.937 228.704 109.951 231.665 109.951C233.874 109.951 235.57 109.438 236.754 108.414C237.961 107.366 238.564 106.159 238.564 104.792C238.564 103.494 237.995 102.333 236.857 101.308C235.718 100.283 233.077 99.3151 228.932 98.4041C222.147 96.8782 217.307 94.8513 214.415 92.3233C211.5 89.7953 210.042 86.5727 210.042 82.6555C210.042 80.082 210.783 77.6564 212.263 75.379C213.766 73.0787 216.009 71.2795 218.992 69.9814C221.998 68.6605 226.109 68 231.323 68C237.722 68 242.595 69.1957 245.943 71.587C249.313 73.9556 251.317 77.7362 251.954 82.9287L237.369 83.7829C236.982 81.5281 236.162 79.8883 234.91 78.8635C233.68 77.8386 231.972 77.3262 229.786 77.3262C227.987 77.3262 226.632 77.7134 225.721 78.4877C224.811 79.2393 224.355 80.1617 224.355 81.2548C224.355 82.0519 224.731 82.7693 225.482 83.407C226.211 84.0675 227.942 84.6825 230.675 85.2518C237.438 86.7093 242.277 88.1897 245.191 89.6928C248.129 91.1732 250.258 93.018 251.579 95.2271C252.922 97.4362 253.594 99.9072 253.594 102.64C253.594 105.851 252.706 108.812 250.929 111.522C249.154 114.232 246.672 116.294 243.483 117.706C240.295 119.095 236.276 119.789 231.426 119.789C222.909 119.789 217.012 118.15 213.732 114.87C210.453 111.591 208.597 107.423 208.164 102.367Z" fill="black"/>
<path d="M260.086 68.8545H275.56V86.3796H292.468V68.8545H308.01V118.936H292.468V98.6779H275.56V118.936H260.086V68.8545Z" fill="black"/>
<path d="M317.504 68.8545H333.011V118.936H317.504V68.8545Z" fill="black"/>
</svg>
