<svg width="703" height="202" viewBox="0 0 703 202" fill="none" xmlns="http://www.w3.org/2000/svg">
<g clip-path="url(#clip0_85_393)">
<path d="M0 62.2583H42.6979L61.9638 118.46L81.3373 62.2583H123.81L85.3959 154.35H38.6394L0 62.2583Z" fill="black"/>
<path d="M184.992 157.038C174.625 157.038 165.423 154.983 157.393 150.864C149.355 146.755 143.047 141.05 138.47 133.757C133.883 126.464 131.595 118.07 131.595 108.577C131.595 99.0833 133.883 90.6511 138.47 83.2802C143.047 75.9191 149.355 70.1159 157.393 65.89C165.432 61.6642 174.635 59.5513 184.992 59.5513C195.348 59.5513 204.385 61.6642 212.316 65.89C220.237 70.1159 226.438 75.9094 230.907 83.2802C235.376 90.6511 237.606 99.0833 237.606 108.577C237.606 118.07 235.367 126.464 230.907 133.757C226.438 141.05 220.237 146.755 212.316 150.864C204.394 154.973 195.28 157.038 184.992 157.038ZM184.992 124.623C188.072 124.623 190.742 123.971 192.991 122.656C195.241 121.352 196.972 119.463 198.175 116.99C199.377 114.526 199.974 111.644 199.974 108.353C199.974 105.062 199.368 102.297 198.175 99.8233C196.972 97.3599 195.241 95.432 192.991 94.0493C190.742 92.6667 188.072 91.9753 184.992 91.9753C181.911 91.9753 179.134 92.6667 176.884 94.0493C174.635 95.432 172.865 97.3599 171.593 99.8233C170.312 102.287 169.677 105.13 169.677 108.353C169.677 111.576 170.312 114.526 171.593 116.99C172.865 119.453 174.635 121.352 176.884 122.656C179.134 123.961 181.843 124.623 184.992 124.623Z" fill="black"/>
<path d="M298.436 59.5609C304.891 59.5609 310.807 60.0867 316.176 61.1286C321.545 62.1802 326.015 63.3194 329.584 64.5463C333.154 65.7829 335.384 66.7371 336.283 67.4089L323.775 90.5147C322.425 89.541 319.814 88.2558 315.942 86.6492C312.069 85.0426 307.815 84.2344 303.15 84.2344C300.069 84.2344 297.536 84.5947 295.541 85.2957C293.546 86.0065 292.558 87.2236 292.558 88.9373C292.558 90.6511 293.722 91.9461 296.05 93.0366C298.377 94.1174 301.908 95.0716 306.641 95.8993C310.925 96.7269 315.433 98.0901 320.157 99.9888C324.88 101.888 328.89 104.779 332.156 108.625C335.423 112.481 337.056 117.622 337.056 124.049C337.056 130.933 335.55 136.522 332.547 140.816C329.545 145.12 325.623 148.44 320.773 150.796C315.932 153.153 310.709 154.779 305.116 155.674C299.522 156.57 294.172 157.018 289.057 157.018C281.547 157.018 275.053 156.366 269.567 155.051C264.08 153.747 259.709 152.267 256.442 150.621C253.176 148.975 250.936 147.7 249.743 146.804L262.026 121.118C263.982 122.686 267.151 124.487 271.542 126.503C275.933 128.518 280.5 129.531 285.234 129.531C289.439 129.531 292.617 129.063 294.749 128.129C296.891 127.194 297.957 125.909 297.957 124.263C297.957 122.987 297.429 121.946 296.382 121.118C295.326 120.3 293.791 119.55 291.766 118.878C289.742 118.207 287.18 117.574 284.109 116.97C281.331 116.444 278.251 115.568 274.867 114.331C271.483 113.095 268.276 111.362 265.234 109.112C262.193 106.873 259.679 104.01 257.684 100.534C255.689 97.058 254.701 92.8127 254.701 87.7981C254.701 81.3717 256.804 76.0748 261.009 71.9269C265.215 67.7789 270.642 64.6728 277.292 62.6184C283.943 60.5639 290.984 59.5317 298.416 59.5317L298.436 59.5609Z" fill="black"/>
<path d="M419.654 62.2581H464.152L422.021 106.23L469.11 154.35H423.478L390.58 118.791V154.35H350.698V0H390.58V92.54L419.645 62.2581H419.654Z" fill="black"/>
<path d="M510.126 116.318C510.429 118.781 511.417 120.933 513.109 122.764C514.801 124.594 517.05 126.016 519.867 127.028C522.683 128.041 525.969 128.547 529.725 128.547C533.48 128.547 537.118 128.265 540.424 127.71C543.729 127.145 546.673 126.366 549.264 125.354C551.856 124.341 553.939 123.28 555.514 122.16L570.163 146.95C568.589 148.294 566.125 149.754 562.78 151.322C559.435 152.89 554.897 154.243 549.147 155.363C543.397 156.483 536.062 157.047 527.123 157.047C516.757 157.047 507.447 155.217 499.183 151.556C490.919 147.895 484.406 142.374 479.633 135.013C474.861 127.652 472.475 118.431 472.475 107.36C472.475 98.3823 474.479 90.2909 478.499 83.0758C482.518 75.8607 488.357 70.1354 496.014 65.9096C503.672 61.6837 512.953 59.5708 523.837 59.5708C534.722 59.5708 543.328 61.3819 550.986 65.0138C558.643 68.6456 564.54 74.1178 568.677 81.4497C572.804 88.7817 574.877 98.0513 574.877 109.268C574.877 109.872 574.858 111.05 574.819 112.803C574.78 114.565 574.691 115.743 574.535 116.337H510.097L510.126 116.318ZM537.392 98.3726C537.314 95.9091 536.776 93.6988 535.759 91.7514C534.742 89.8041 533.314 88.2754 531.475 87.1556C529.637 86.0359 527.329 85.4711 524.551 85.4711C521.92 85.4711 519.593 85.9774 517.569 86.9901C515.544 88.0027 513.94 89.473 512.777 91.4204C511.613 93.3678 510.987 95.6852 510.918 98.3726H537.392Z" fill="black"/>
<path d="M641.369 120.242L664.018 62.2485H703L638.894 201H599.12L620.636 154.341L581.879 62.2485H621.428L641.369 120.242Z" fill="black"/>
<path d="M562.809 179.967C565.324 179.967 567.278 180.678 568.672 182.099C570.066 183.493 570.763 185.571 570.763 188.331V201H568.098V188.331C568.098 186.445 567.606 185.024 566.622 184.067C565.638 183.111 564.367 182.632 562.809 182.632C561.634 182.632 560.527 182.906 559.488 183.452C558.449 183.999 557.602 184.874 556.946 186.076C556.29 187.252 555.962 188.755 555.962 190.586V201H553.297V180.5H555.962L554.937 186.322H555.798C556.263 184.327 557.083 182.769 558.258 181.648C559.461 180.528 560.978 179.967 562.809 179.967Z" fill="black"/>
<path d="M540.116 180.008C541.947 180.008 543.519 180.405 544.831 181.197C546.143 181.963 547.127 182.988 547.783 184.272C548.439 185.53 548.767 186.883 548.767 188.331V201H546.184L546.716 195.178H545.896C545.268 197.31 544.298 198.909 542.986 199.975C541.701 201.041 540.198 201.574 538.476 201.574C535.906 201.574 534.02 200.987 532.818 199.811C531.642 198.609 531.055 197.16 531.055 195.465C531.055 192.787 532.052 190.928 534.048 189.889C536.043 188.851 539.022 188.331 542.986 188.331H546.307C546.361 187.211 546.115 186.227 545.569 185.379C545.022 184.505 544.256 183.835 543.272 183.37C542.316 182.906 541.264 182.673 540.116 182.673C538.585 182.673 537.355 183.029 536.425 183.739C535.496 184.45 534.662 185.489 533.924 186.855L531.67 185.133C532.626 183.548 533.733 182.304 534.991 181.402C536.275 180.473 537.984 180.008 540.116 180.008ZM538.476 198.909C540.526 198.909 542.207 198.144 543.519 196.613C544.831 195.083 545.678 193.183 546.061 190.914H542.986C539.788 190.914 537.423 191.27 535.893 191.98C534.362 192.664 533.597 193.825 533.597 195.465C533.597 196.531 534.006 197.379 534.826 198.007C535.674 198.609 536.89 198.909 538.476 198.909Z" fill="black"/>
<path d="M526.15 180.5H529.02L523.69 201H516.474L510.734 180.5H513.604L518.77 198.95H521.353L526.15 180.5Z" fill="black"/>
<path d="M498.54 179.967C500.7 179.967 502.572 180.514 504.157 181.607C505.743 182.701 506.932 184.177 507.724 186.035C508.517 187.867 508.831 189.848 508.667 191.98H491.119C491.338 194.112 492.131 195.807 493.497 197.064C494.864 198.322 496.545 198.95 498.54 198.95C499.934 198.95 501.178 198.636 502.271 198.007C503.392 197.351 504.28 196.436 504.936 195.26L507.068 196.859C506.194 198.335 505.005 199.497 503.501 200.344C502.025 201.192 500.372 201.615 498.54 201.615C496.572 201.615 494.809 201.137 493.251 200.18C491.693 199.196 490.477 197.884 489.602 196.244C488.755 194.577 488.331 192.746 488.331 190.75C488.331 188.782 488.755 186.978 489.602 185.338C490.477 183.671 491.693 182.359 493.251 181.402C494.809 180.446 496.572 179.967 498.54 179.967ZM498.54 182.632C496.545 182.632 494.864 183.261 493.497 184.518C492.158 185.748 491.365 187.416 491.119 189.52H505.92C505.702 187.416 504.936 185.748 503.624 184.518C502.34 183.261 500.645 182.632 498.54 182.632Z" fill="black"/>
<path d="M479.681 186.322C480.173 184.436 480.993 183.001 482.141 182.017C483.316 181.006 484.833 180.5 486.692 180.5V183.165C484.751 183.165 483.125 183.739 481.813 184.887C480.501 186.035 479.845 187.935 479.845 190.586V201H477.18V180.5H479.845L478.82 186.322H479.681Z" fill="black"/>
<path d="M463.745 179.967C465.904 179.967 467.776 180.514 469.362 181.607C470.947 182.701 472.136 184.177 472.929 186.035C473.721 187.867 474.036 189.848 473.872 191.98H456.324C456.542 194.112 457.335 195.807 458.702 197.064C460.068 198.322 461.749 198.95 463.745 198.95C465.139 198.95 466.382 198.636 467.476 198.007C468.596 197.351 469.485 196.436 470.141 195.26L472.273 196.859C471.398 198.335 470.209 199.497 468.706 200.344C467.23 201.192 465.576 201.615 463.745 201.615C461.777 201.615 460.014 201.137 458.456 200.18C456.898 199.196 455.681 197.884 454.807 196.244C453.959 194.577 453.536 192.746 453.536 190.75C453.536 188.782 453.959 186.978 454.807 185.338C455.681 183.671 456.898 182.359 458.456 181.402C460.014 180.446 461.777 179.967 463.745 179.967ZM463.745 182.632C461.749 182.632 460.068 183.261 458.702 184.518C457.362 185.748 456.57 187.416 456.324 189.52H471.125C470.906 187.416 470.141 185.748 468.829 184.518C467.544 183.261 465.849 182.632 463.745 182.632Z" fill="black"/>
<path d="M451.092 168.2H454.331L442.687 189.52V200.918H439.694V189.52L428.05 168.2H431.289L441.211 186.978L451.092 168.2Z" fill="black"/>
</g>
<defs>
<clipPath id="clip0_85_393">
<rect width="703" height="202" fill="white"/>
</clipPath>
</defs>
</svg>
