<svg width="688" height="364" viewBox="0 0 688 364" fill="none" xmlns="http://www.w3.org/2000/svg">
<path d="M104.827 363.58C162.722 363.58 209.656 316.652 209.656 258.763C209.656 200.874 162.722 153.945 104.827 153.945C46.9325 153.945 0 200.874 0 258.763C0 316.652 46.9325 363.58 104.827 363.58Z" fill="black"/>
<path d="M104.827 0H0V124.47H104.827C176.897 124.47 235.863 183.429 235.863 255.491V360.308H360.346V258.767C360.346 114.643 245.69 0 104.827 0Z" fill="black"/>
<path d="M511.035 0H386.551V363.584H511.035V0Z" fill="black"/>
<path d="M609.313 157.225C652.734 157.225 687.934 122.029 687.934 78.6125C687.934 35.1959 652.734 0 609.313 0C565.892 0 530.691 35.1959 530.691 78.6125C530.691 122.029 565.892 157.225 609.313 157.225Z" fill="black"/>
</svg>
