<svg width="2687" height="755" viewBox="0 0 2687 755" fill="none" xmlns="http://www.w3.org/2000/svg">
<path d="M217.679 754.99C337.901 754.99 435.361 657.54 435.361 537.331C435.361 417.122 337.901 319.673 217.679 319.673C97.4576 319.673 0 417.122 0 537.331C0 657.54 97.4576 754.99 217.679 754.99Z" fill="black"/>
<path d="M217.679 0H0V258.467H217.679C367.335 258.467 489.78 380.9 489.78 530.539V748.198H748.277V537.342C748.277 238.062 510.187 0 217.679 0Z" fill="black"/>
<path d="M1061.19 0H802.696V755H1061.19V0Z" fill="black"/>
<path d="M1476.14 754.99C1596.36 754.99 1693.82 657.54 1693.82 537.331C1693.82 417.122 1596.36 319.673 1476.14 319.673C1355.92 319.673 1258.46 417.122 1258.46 537.331C1258.46 657.54 1355.92 754.99 1476.14 754.99Z" fill="black"/>
<path d="M1476.14 265.264C1625.8 265.264 1748.24 387.697 1748.24 537.336V754.995H2006.74V537.336C2006.74 244.859 1768.65 6.79688 1476.14 6.79688V265.264Z" fill="black"/>
<path d="M2319.65 0H2061.15V755H2319.65V0Z" fill="black"/>
<path d="M1265.27 326.485C1355.44 326.485 1428.53 253.399 1428.53 163.243C1428.53 73.086 1355.44 0 1265.27 0C1175.1 0 1102.01 73.086 1102.01 163.243C1102.01 253.399 1175.1 326.485 1265.27 326.485Z" fill="black"/>
<path d="M2523.73 326.485C2613.9 326.485 2686.99 253.399 2686.99 163.243C2686.99 73.086 2613.9 0 2523.73 0C2433.56 0 2360.47 73.086 2360.47 163.243C2360.47 253.399 2433.56 326.485 2523.73 326.485Z" fill="black"/>
</svg>
