<svg width="2520" height="341" viewBox="0 0 2520 341" fill="none" xmlns="http://www.w3.org/2000/svg">
<path d="M98.0596 340.105C152.217 340.105 196.12 296.206 196.12 242.055C196.12 187.903 152.217 144.004 98.0596 144.004C43.9025 144.004 0 187.903 0 242.055C0 296.206 43.9025 340.105 98.0596 340.105Z" fill="black"/>
<path d="M98.0596 0H0V116.434H98.0596C165.476 116.434 220.635 171.587 220.635 238.996V337.046H337.082V242.06C337.082 107.242 229.828 0 98.0596 0Z" fill="black"/>
<path d="M478.041 0H361.594V340.11H478.041V0Z" fill="black"/>
<path d="M664.966 340.106C719.123 340.106 763.026 296.207 763.026 242.056C763.026 187.904 719.123 144.005 664.966 144.005C610.809 144.005 566.906 187.904 566.906 242.056C566.906 296.207 610.809 340.106 664.966 340.106Z" fill="black"/>
<path d="M664.969 119.494C732.385 119.494 787.544 174.647 787.544 242.056V340.107H903.991V242.056C903.991 110.302 796.737 3.06055 664.969 3.06055V119.494Z" fill="black"/>
<path d="M1044.95 0H928.504V340.11H1044.95V0Z" fill="black"/>
<path d="M569.976 147.074C610.593 147.074 643.52 114.151 643.52 73.5371C643.52 32.9236 610.593 0 569.976 0C529.358 0 496.43 32.9236 496.43 73.5371C496.43 114.151 529.358 147.074 569.976 147.074Z" fill="black"/>
<path d="M1136.88 147.074C1177.5 147.074 1210.43 114.151 1210.43 73.5371C1210.43 32.9236 1177.5 0 1136.88 0C1096.26 0 1063.34 32.9236 1063.34 73.5371C1063.34 114.151 1096.26 147.074 1136.88 147.074Z" fill="black"/>
<path d="M1528.25 337.245V60.1497L1628.49 0.515137V337.245H1528.25Z" fill="black"/>
<path d="M1664.99 0H1881.94L1941.57 107.959H1664.99V0Z" fill="black"/>
<path d="M1768.84 278.636H1878.34L1941.57 171.705H1768.84V278.636Z" fill="black"/>
<rect x="1835.67" y="107.96" width="105.903" height="63.7473" fill="black"/>
<rect x="1664.99" y="107.96" width="103.846" height="229.285" fill="black"/>
<path d="M2319.94 1.02832H2465.95L2519.93 101.79H2263.39L2319.94 1.02832Z" fill="black"/>
<rect x="2263.39" y="186.102" width="158.34" height="93.5645" fill="black"/>
<rect x="2421.73" y="101.79" width="97.6773" height="235.454" fill="black"/>
<rect x="2263.39" y="101.79" width="97.6773" height="235.454" fill="black"/>
<path d="M1971.39 231.341L2242.32 231.341L2182.17 336.216H1971.39V231.341Z" fill="black"/>
<path d="M1971.39 87.396H2074.21L2072.15 231.341H1971.39V87.396Z" fill="black"/>
<path d="M1971.39 0H2193.99L2240.77 87.3954H1971.39V0Z" fill="black"/>
<path d="M2118.94 87.396L2076.78 158.341L2186.39 181.989L2240.78 87.396H2118.94Z" fill="black"/>
<path d="M2199.13 159.882L2241.8 231.341H2158L2199.13 159.882Z" fill="black"/>
<path d="M2122.54 231.342H2158.01L2186.39 181.989L2076.78 158.341L2122.54 231.342Z" fill="black"/>
<path d="M1348.46 100.806L1386.72 160.789H1387.59L1425.85 100.806H1440.76L1396.3 169.897L1440.76 238.988H1425.85L1387.59 179.681H1386.72L1348.46 238.988H1333.55L1378.69 169.897L1333.55 100.806H1348.46Z" fill="black"/>
</svg>
