<svg width="1274" height="219" viewBox="0 0 1274 219" fill="none" xmlns="http://www.w3.org/2000/svg">
<g clip-path="url(#clip0_91_13)">
<path d="M0 93.38L71.24 0H142.49L71.24 93.38L142.49 130.73V140.06H71.24L0 93.38Z" fill="black"/>
<path d="M246.98 121.39L175.73 214.77H104.49L175.73 121.39L104.49 84.0402V74.7002H175.73L246.98 121.39Z" fill="black"/>
<path d="M1261.2 192C1265.03 192 1269.37 191.6 1274 190.79V214.76C1267.96 215.97 1261.61 216.47 1255.16 216.47C1241.46 216.47 1231.19 213.15 1224.34 206.5C1217.69 199.85 1214.37 188.07 1214.37 171.15V85.04H1192.01V60.57H1214.37V25.52L1243.98 11.02V60.57H1274V85.04H1243.98V172.06C1243.98 179.92 1245.19 185.25 1247.61 188.07C1250.23 190.69 1254.76 192 1261.21 192H1261.2ZM1179.32 33.07H1145.78V0H1179.32V33.07ZM1177.2 214.77H1147.59V60.57H1177.2V214.77ZM1090.8 60.57H1120.41V214.77H1090.8V195.33H1090.2C1085.57 202.18 1079.02 207.82 1070.56 212.25C1062.1 216.68 1051.73 218.9 1039.44 218.9C1024.33 218.9 1011.94 214.57 1002.27 205.91C992.8 197.05 988.07 184.15 988.07 167.23V60.57H1017.68V159.07C1017.68 169.95 1020.2 178.51 1025.23 184.75C1030.47 190.79 1038.42 193.81 1049.1 193.81C1061.79 193.81 1071.86 190.28 1079.31 183.23C1086.96 176.18 1090.79 166.81 1090.79 155.13V60.57H1090.8ZM908.52 218.9C885.96 218.9 868.53 213.76 856.25 203.49C844.16 193.22 837.92 179.82 837.52 163.3H867.43C868.03 172.97 871.56 180.72 878.01 186.57C884.66 192.21 894.73 195.03 908.23 195.03C920.11 195.03 928.58 192.91 933.61 188.68C938.65 184.25 941.16 178.81 941.16 172.36C941.16 166.32 939.35 161.68 935.72 158.46C932.09 155.24 928.17 153.12 923.94 152.11C919.91 150.9 912.16 149.09 900.67 146.67C888.78 143.85 878.91 140.93 871.06 137.91C863.2 134.89 856.56 130.36 851.12 124.31C845.68 118.26 842.96 110.31 842.96 100.44C842.96 86.94 848.1 76.17 858.37 68.11C868.84 60.05 883.25 56.02 901.58 56.02C921.72 56.02 937.23 60.65 948.11 69.92C958.99 79.19 965.03 90.97 966.24 105.27H936.33C934.92 97.82 931.7 91.77 926.66 87.14C921.83 82.31 913.67 79.89 902.19 79.89C892.52 79.89 885.37 81.6 880.74 85.03C876.11 88.45 873.79 93.19 873.79 99.23C873.79 103.66 875.1 107.19 877.72 109.81C880.34 112.43 883.66 114.44 887.69 115.85C891.72 117.06 897.66 118.47 905.52 120.08C907.13 120.28 909.55 120.78 912.77 121.59C925.06 124.41 935.23 127.43 943.29 130.65C951.35 133.87 958.1 138.71 963.53 145.15C969.17 151.6 971.99 160.16 971.99 170.83C971.99 185.94 966.45 197.72 955.37 206.18C944.29 214.64 928.68 218.87 908.54 218.87L908.52 218.9ZM693.05 214.77H662.53L614.79 60.57H646.82L679.45 179.92H680.05L712.08 60.57H741.99L774.02 179.92H774.62L807.56 60.57H838.38L790.64 214.77H760.12L726.88 95.92H726.28L693.04 214.77H693.05ZM535.15 195.03C549.05 195.03 560.23 191.61 568.69 184.76C577.15 177.71 581.38 167.64 581.38 154.54V132.48C579.16 134.49 575.24 136.41 569.6 138.22C564.16 139.83 556.81 141.64 547.54 143.66C533.64 146.48 523.67 150.11 517.63 154.54C511.79 158.77 508.87 164.81 508.87 172.67C508.87 187.58 517.63 195.03 535.16 195.03H535.15ZM528.5 218.9C513.19 218.9 500.9 214.87 491.64 206.81C482.58 198.75 478.04 188.08 478.04 174.78C478.04 163.7 480.56 154.84 485.59 148.19C490.83 141.34 497.98 136.1 507.04 132.48C516.31 128.65 528.09 125.43 542.39 122.81C552.26 121 559.71 119.39 564.75 117.98C569.79 116.37 573.81 114.25 576.84 111.63C579.86 108.81 581.37 104.98 581.37 100.15C581.37 86.45 571.6 79.6 552.06 79.6C538.97 79.6 529.8 81.82 524.56 86.25C519.32 90.68 516.3 98.13 515.5 108.61H485.28C486.09 92.7 492.03 79.91 503.11 70.24C514.19 60.57 530.91 55.74 553.27 55.74C570.59 55.74 584.39 59.97 594.67 68.43C605.14 76.69 610.38 90.19 610.38 108.92V214.78H581.68V192.92H581.08C576.04 201.18 569.09 207.63 560.23 212.26C551.37 216.69 540.79 218.91 528.5 218.91V218.9ZM472.2 214.77H329.58V0H362.82V185.96H472.2V214.76V214.77Z" fill="black"/>
</g>
<defs>
<clipPath id="clip0_91_13">
<rect width="1274" height="218.9" fill="white"/>
</clipPath>
</defs>
</svg>
