<svg width="761" height="52" viewBox="0 0 761 52" fill="none" xmlns="http://www.w3.org/2000/svg">
<g clip-path="url(#clip0_133_619)">
<path d="M431.373 42.6687H413.748L411.323 50.9359H395.508L414.329 0.854492H431.203L450.024 50.9359H433.833L431.373 42.6687ZM428.129 31.8394L422.595 13.836L417.096 31.8394H428.129Z" fill="black"/>
<path d="M452.98 0.854492H468.454V19.7802L484.679 0.854492H505.242L487.001 19.7461L506.061 50.9359H487.001L476.447 30.3362L468.454 38.7059V50.9359H452.98V0.854492Z" fill="black"/>
<path d="M539.898 42.6687H522.272L519.847 50.9359H504.031L522.852 0.854492H539.726L558.547 50.9359H542.356L539.898 42.6687ZM536.652 31.8394L531.119 13.836L525.619 31.8394H536.652Z" fill="black"/>
<path d="M552.586 0.854492H568.777L580.049 36.8953L591.15 0.854492H606.863L588.281 50.9359H571.51L552.586 0.854492Z" fill="black"/>
<path d="M636.67 42.6687H619.045L616.619 50.9359H600.805L619.625 0.854492H636.5L655.321 50.9359H639.13L636.67 42.6687ZM633.426 31.8394L627.892 13.836L622.393 31.8394H633.426Z" fill="black"/>
<path d="M658.414 0.854492H681.402C685.934 0.854492 689.589 1.46941 692.367 2.69923C695.168 3.92906 697.479 5.6941 699.301 7.99434C701.123 10.2946 702.443 12.9706 703.263 16.0224C704.083 19.0742 704.493 22.3082 704.493 25.7244C704.493 31.0764 703.878 35.2328 702.648 38.1935C701.441 41.1314 699.757 43.6024 697.593 45.6066C695.43 47.588 693.107 48.9089 690.625 49.5694C687.232 50.4804 684.158 50.9359 681.402 50.9359H658.414V0.854492ZM673.887 12.1962V39.56H677.679C680.913 39.56 683.213 39.2069 684.579 38.501C685.945 37.7721 687.015 36.5196 687.79 34.7432C688.564 32.944 688.951 30.0402 688.951 26.0318C688.951 20.7254 688.086 17.0928 686.356 15.1341C684.625 13.1755 681.755 12.1962 677.747 12.1962H673.887Z" fill="black"/>
<path d="M708.609 25.9289C708.609 17.7528 710.887 11.3873 715.441 6.83238C719.996 2.27746 726.337 0 734.467 0C742.801 0 749.223 2.2433 753.732 6.7299C758.241 11.1937 760.495 17.4568 760.495 25.519C760.495 31.3721 759.505 36.1774 757.524 39.9353C755.565 43.6704 752.719 46.5855 748.984 48.6808C745.273 50.7532 740.638 51.7894 735.082 51.7894C729.434 51.7894 724.755 50.8898 721.043 49.0907C717.354 47.2915 714.36 44.4447 712.06 40.5502C709.76 36.6557 708.609 31.782 708.609 25.9289ZM724.084 25.9973C724.084 31.0532 725.017 34.6857 726.884 36.8949C728.774 39.104 731.336 40.2086 734.569 40.2086C737.894 40.2086 740.467 39.1268 742.289 36.9632C744.111 34.7996 745.022 30.9166 745.022 25.314C745.022 20.5997 744.065 17.1607 742.153 14.9971C740.262 12.8107 737.689 11.7176 734.433 11.7176C731.314 11.7176 728.808 12.8221 726.919 15.0312C725.028 17.2404 724.084 20.8957 724.084 25.9973Z" fill="black"/>
<path d="M0 0.854492H47.0354V13.2211H31.2544V50.9359H15.781V13.2211H0V0.854492Z" fill="black"/>
<path d="M78.7016 42.6687H61.0762L58.651 50.9359H42.8359L61.6569 0.854492H78.5309L97.3519 50.9359H81.161L78.7016 42.6687ZM75.4567 31.8394L69.9231 13.836L64.4237 31.8394H75.4567Z" fill="black"/>
<path d="M101.008 0.854492H116.481V19.7802L132.706 0.854492H153.269L135.029 19.7461L154.089 50.9359H135.029L124.474 30.3362L116.481 38.7059V50.9359H101.008V0.854492Z" fill="black"/>
<path d="M188.624 42.6687H170.998L168.573 50.9359H152.758L171.579 0.854492H188.453L207.274 50.9359H191.083L188.624 42.6687ZM185.379 31.8394L179.846 13.836L174.346 31.8394H185.379Z" fill="black"/>
<path d="M208.164 34.3669L222.886 33.4445C223.205 35.8358 223.854 37.6578 224.833 38.9105C226.427 40.9374 228.704 41.9509 231.665 41.9509C233.874 41.9509 235.57 41.4384 236.754 40.4135C237.961 39.3659 238.564 38.1589 238.564 36.7924C238.564 35.4943 237.995 34.3328 236.857 33.3079C235.718 32.283 233.077 31.3151 228.932 30.4041C222.147 28.8782 217.307 26.8513 214.415 24.3233C211.5 21.7953 210.042 18.5727 210.042 14.6555C210.042 12.082 210.783 9.6564 212.263 7.37898C213.766 5.07874 216.009 3.27955 218.992 1.98139C221.998 0.660464 226.109 0 231.323 0C237.722 0 242.595 1.19567 245.943 3.58701C249.313 5.95556 251.317 9.7362 251.954 14.9287L237.369 15.7829C236.982 13.5281 236.162 11.8883 234.91 10.8635C233.68 9.83859 231.972 9.32621 229.786 9.32621C227.987 9.32621 226.632 9.71341 225.721 10.4877C224.811 11.2393 224.355 12.1617 224.355 13.2548C224.355 14.0519 224.731 14.7693 225.482 15.407C226.211 16.0675 227.942 16.6825 230.675 17.2518C237.438 18.7093 242.277 20.1897 245.191 21.6928C248.129 23.1732 250.258 25.018 251.579 27.2271C252.922 29.4362 253.594 31.9072 253.594 34.6402C253.594 37.8515 252.706 40.8122 250.929 43.5223C249.154 46.2324 246.672 48.2936 243.483 49.7056C240.295 51.0948 236.276 51.7894 231.426 51.7894C222.909 51.7894 217.012 50.1497 213.732 46.8702C210.453 43.5907 208.597 39.4229 208.164 34.3669Z" fill="black"/>
<path d="M260.086 0.854492H275.56V18.3796H292.468V0.854492H308.01V50.9359H292.468V30.6779H275.56V50.9359H260.086V0.854492Z" fill="black"/>
<path d="M317.504 0.854492H333.011V50.9359H317.504V0.854492Z" fill="black"/>
</g>
<defs>
<clipPath id="clip0_133_619">
<rect width="761" height="52" fill="white"/>
</clipPath>
</defs>
</svg>
